<svg width="1440" height="246" viewBox="0 0 1440 246" fill="none" xmlns="http://www.w3.org/2000/svg">
<path d="M16.2 249.344C16.2 246.884 14.2 244.916 11.7 244.916C9.19995 244.916 7.19995 246.884 7.19995 249.344C7.19995 251.804 9.19995 253.772 11.7 253.772C14.2 253.772 16.2 251.804 16.2 249.344Z" fill="#231F20"/>
<path d="M70.7 249.344C70.7 245.309 67.4 242.062 63.3 242.062C59.2 242.062 55.9 245.309 55.9 249.344C55.9 253.378 59.2 256.625 63.3 256.625C67.4 256.527 70.7 253.28 70.7 249.344Z" fill="#231F20"/>
<path d="M118.8 249.347C118.8 247.281 117.1 245.608 115 245.608C112.9 245.608 111.2 247.281 111.2 249.347C111.2 251.413 112.9 253.086 115 253.086C117.1 253.086 118.8 251.413 118.8 249.347Z" fill="#231F20"/>
<path d="M176.1 249.346C176.1 244.229 171.8 239.998 166.6 239.998C161.4 239.998 157.1 244.131 157.1 249.346C157.1 254.463 161.3 258.694 166.6 258.694C171.9 258.596 176.1 254.463 176.1 249.346Z" fill="#231F20"/>
<path d="M274.7 249.346C274.7 246.689 272.6 244.623 269.9 244.623C267.3 244.623 265.1 246.689 265.1 249.346C265.1 251.905 267.2 254.069 269.9 254.069C272.5 253.971 274.7 251.905 274.7 249.346Z" fill="#231F20"/>
<path d="M325.4 249.345C325.4 247.279 323.7 245.508 321.5 245.508C319.4 245.508 317.6 247.181 317.6 249.345C317.6 251.412 319.3 253.183 321.5 253.183C323.7 253.085 325.4 251.412 325.4 249.345Z" fill="#231F20"/>
<path d="M381.3 249.344C381.3 244.916 377.7 241.374 373.2 241.374C368.7 241.374 365.1 244.916 365.1 249.344C365.1 253.772 368.7 257.315 373.2 257.315C377.6 257.315 381.3 253.674 381.3 249.344Z" fill="#231F20"/>
<path d="M533.6 249.348C533.6 246.396 531.1 243.936 528.1 243.936C525.1 243.936 522.6 246.396 522.6 249.348C522.6 252.3 525.1 254.76 528.1 254.76C531.1 254.76 533.6 252.3 533.6 249.348Z" fill="#231F20"/>
<path d="M588 249.343C588 244.817 584.3 241.078 579.6 241.078C575 241.078 571.2 244.718 571.2 249.343C571.2 253.87 574.9 257.609 579.6 257.609C584.3 257.51 588 253.87 588 249.343Z" fill="#231F20"/>
<path d="M635.5 249.344C635.5 247.081 633.6 245.211 631.3 245.211C629 245.211 627.1 247.081 627.1 249.344C627.1 251.607 629 253.477 631.3 253.477C633.6 253.379 635.5 251.607 635.5 249.344Z" fill="#231F20"/>
<path d="M794.1 249.343C794.1 245.014 790.6 241.57 786.2 241.57C781.8 241.57 778.3 245.014 778.3 249.343C778.3 253.673 781.8 257.117 786.2 257.117C790.6 257.019 794.1 253.575 794.1 249.343Z" fill="#231F20"/>
<path d="M898.1 249.344C898.1 244.719 894.3 240.881 889.5 240.881C884.8 240.881 880.9 244.621 880.9 249.344C880.9 253.969 884.7 257.806 889.5 257.806C894.2 257.708 898.1 253.969 898.1 249.344Z" fill="#231F20"/>
<path d="M948.7 249.345C948.7 245.212 945.3 241.866 941.1 241.866C936.9 241.866 933.5 245.212 933.5 249.345C933.5 253.477 936.9 256.823 941.1 256.823C945.3 256.725 948.7 253.379 948.7 249.345Z" fill="#231F20"/>
<path d="M1052.4 249.347C1052.4 245.017 1048.8 241.475 1044.4 241.475C1040 241.475 1036.4 245.017 1036.4 249.347C1036.4 253.676 1040 257.219 1044.4 257.219C1048.8 257.12 1052.4 253.676 1052.4 249.347Z" fill="#231F20"/>
<path d="M1155.9 249.348C1155.9 244.92 1152.2 241.279 1147.7 241.279C1143.2 241.279 1139.5 244.92 1139.5 249.348C1139.5 253.776 1143.2 257.416 1147.7 257.416C1152.2 257.416 1155.9 253.776 1155.9 249.348Z" fill="#231F20"/>
<path d="M1259.2 249.345C1259.2 244.819 1255.5 241.178 1250.9 241.178C1246.3 241.178 1242.6 244.819 1242.6 249.345C1242.6 253.871 1246.3 257.512 1250.9 257.512C1255.5 257.414 1259.2 253.773 1259.2 249.345Z" fill="#231F20"/>
<path d="M1312.3 249.344C1312.3 244.031 1307.9 239.701 1302.5 239.701C1297.1 239.701 1292.7 244.031 1292.7 249.344C1292.7 254.658 1297.1 258.988 1302.5 258.988C1308 258.889 1312.3 254.56 1312.3 249.344Z" fill="#231F20"/>
<path d="M1357.9 249.345C1357.9 247.377 1356.3 245.704 1354.2 245.704C1352.2 245.704 1350.5 247.278 1350.5 249.345C1350.5 251.313 1352.1 252.986 1354.2 252.986C1356.2 252.887 1357.9 251.313 1357.9 249.345Z" fill="#231F20"/>
<path d="M1415.4 249.346C1415.4 244.229 1411.1 239.998 1405.9 239.998C1400.7 239.998 1396.4 244.229 1396.4 249.346C1396.4 254.463 1400.7 258.694 1405.9 258.694C1411.1 258.694 1415.4 254.463 1415.4 249.346Z" fill="#231F20"/>
<path d="M17.2 187.551C17.2 184.5 14.7 182.139 11.7 182.139C8.59995 182.139 6.19995 184.599 6.19995 187.551C6.19995 190.601 8.69995 192.963 11.7 192.963C14.8 192.963 17.2 190.503 17.2 187.551Z" fill="#231F20"/>
<path d="M71.5 187.551C71.5 183.123 67.8 179.482 63.3 179.482C58.8 179.482 55.1 183.123 55.1 187.551C55.1 191.979 58.8 195.62 63.3 195.62C67.9 195.62 71.5 191.979 71.5 187.551Z" fill="#231F20"/>
<path d="M117.4 187.55C117.4 186.271 116.3 185.188 115 185.188C113.7 185.188 112.6 186.271 112.6 187.55C112.6 188.829 113.7 189.912 115 189.912C116.3 189.912 117.4 188.829 117.4 187.55Z" fill="#231F20"/>
<path d="M176.4 187.548C176.4 182.234 172 177.905 166.6 177.905C161.2 177.905 156.8 182.234 156.8 187.548C156.8 192.862 161.2 197.191 166.6 197.191C172 197.093 176.4 192.862 176.4 187.548Z" fill="#231F20"/>
<path d="M223 187.55C223 184.992 220.9 182.827 218.2 182.827C215.6 182.827 213.4 184.894 213.4 187.55C213.4 190.109 215.5 192.274 218.2 192.274C220.9 192.175 223 190.109 223 187.55Z" fill="#231F20"/>
<path d="M272.2 187.552C272.2 186.273 271.2 185.289 269.9 185.289C268.6 185.289 267.6 186.273 267.6 187.552C267.6 188.831 268.6 189.815 269.9 189.815C271.1 189.815 272.2 188.733 272.2 187.552Z" fill="#231F20"/>
<path d="M330.8 187.551C330.8 182.532 326.7 178.498 321.6 178.498C316.5 178.498 312.4 182.532 312.4 187.551C312.4 192.569 316.5 196.604 321.6 196.604C326.6 196.604 330.8 192.569 330.8 187.551Z" fill="#231F20"/>
<path d="M377.4 187.551C377.4 185.189 375.5 183.319 373.1 183.319C370.7 183.319 368.8 185.189 368.8 187.551C368.8 189.912 370.7 191.782 373.1 191.782C375.5 191.683 377.4 189.814 377.4 187.551Z" fill="#231F20"/>
<path d="M426 187.55C426 186.96 425.5 186.369 424.8 186.369C424.2 186.369 423.6 186.861 423.6 187.55C423.6 188.14 424.1 188.731 424.8 188.731C425.4 188.731 426 188.14 426 187.55Z" fill="#231F20"/>
<path d="M480.2 187.551C480.2 185.484 478.5 183.812 476.4 183.812C474.3 183.812 472.6 185.484 472.6 187.551C472.6 189.617 474.3 191.29 476.4 191.29C478.5 191.29 480.2 189.617 480.2 187.551Z" fill="#231F20"/>
<path d="M529.5 187.55C529.5 186.763 528.9 186.173 528.1 186.173C527.3 186.173 526.7 186.763 526.7 187.55C526.7 188.338 527.3 188.928 528.1 188.928C528.9 188.928 529.5 188.338 529.5 187.55Z" fill="#231F20"/>
<path d="M585.9 187.552C585.9 184.207 583.1 181.452 579.7 181.452C576.3 181.452 573.5 184.207 573.5 187.552C573.5 190.898 576.3 193.653 579.7 193.653C583.1 193.653 585.9 190.898 585.9 187.552Z" fill="#231F20"/>
<path d="M633 187.55C633 186.664 632.2 185.877 631.3 185.877C630.4 185.877 629.6 186.664 629.6 187.55C629.6 188.435 630.4 189.223 631.3 189.223C632.3 189.223 633 188.435 633 187.55Z" fill="#231F20"/>
<path d="M692 187.549C692 182.629 688 178.693 683 178.693C678 178.693 674 182.629 674 187.549C674 192.469 678 196.405 683 196.405C688 196.405 692 192.469 692 187.549Z" fill="#231F20"/>
<path d="M740.9 187.55C740.9 184.106 738.1 181.351 734.6 181.351C731.1 181.351 728.3 184.106 728.3 187.55C728.3 190.994 731.1 193.749 734.6 193.749C738.1 193.651 740.9 190.895 740.9 187.55Z" fill="#231F20"/>
<path d="M790.2 187.552C790.2 185.387 788.4 183.616 786.2 183.616C784 183.616 782.2 185.387 782.2 187.552C782.2 189.717 784 191.488 786.2 191.488C788.4 191.488 790.2 189.717 790.2 187.552Z" fill="#231F20"/>
<path d="M845.3 187.553C845.3 183.518 842 180.271 837.9 180.271C833.8 180.271 830.5 183.518 830.5 187.553C830.5 191.587 833.8 194.834 837.9 194.834C841.9 194.834 845.3 191.587 845.3 187.553Z" fill="#231F20"/>
<path d="M892.3 187.551C892.3 186.075 891.1 184.796 889.5 184.796C888 184.796 886.7 185.977 886.7 187.551C886.7 189.027 887.9 190.306 889.5 190.306C891 190.306 892.3 189.027 892.3 187.551Z" fill="#231F20"/>
<path d="M948.3 187.552C948.3 183.616 945.1 180.467 941.1 180.467C937.1 180.467 933.9 183.616 933.9 187.552C933.9 191.488 937.1 194.636 941.1 194.636C945.1 194.636 948.3 191.488 948.3 187.552Z" fill="#231F20"/>
<path d="M997.9 187.55C997.9 184.794 995.6 182.531 992.8 182.531C990 182.531 987.7 184.794 987.7 187.55C987.7 190.305 990 192.568 992.8 192.568C995.6 192.568 997.9 190.305 997.9 187.55Z" fill="#231F20"/>
<path d="M1053.9 187.549C1053.9 182.432 1049.6 178.201 1044.4 178.201C1039.1 178.201 1034.9 182.432 1034.9 187.549C1034.9 192.666 1039.1 196.897 1044.4 196.897C1049.7 196.897 1053.9 192.666 1053.9 187.549Z" fill="#231F20"/>
<path d="M1099.5 187.552C1099.5 185.682 1097.9 184.108 1096 184.108C1094.1 184.108 1092.5 185.682 1092.5 187.552C1092.5 189.422 1094.1 190.996 1096 190.996C1098 190.996 1099.5 189.422 1099.5 187.552Z" fill="#231F20"/>
<path d="M1157.1 187.551C1157.1 182.435 1152.9 178.302 1147.7 178.302C1142.5 178.302 1138.3 182.435 1138.3 187.551C1138.3 192.668 1142.5 196.801 1147.7 196.801C1152.9 196.801 1157.1 192.668 1157.1 187.551Z" fill="#231F20"/>
<path d="M1206.7 187.553C1206.7 183.518 1203.4 180.271 1199.3 180.271C1195.2 180.271 1191.9 183.518 1191.9 187.553C1191.9 191.587 1195.2 194.834 1199.3 194.834C1203.4 194.834 1206.7 191.587 1206.7 187.553Z" fill="#231F20"/>
<path d="M1256.2 187.55C1256.2 184.697 1253.8 182.335 1250.9 182.335C1248 182.335 1245.6 184.697 1245.6 187.55C1245.6 190.404 1248 192.765 1250.9 192.765C1253.9 192.765 1256.2 190.404 1256.2 187.55Z" fill="#231F20"/>
<path d="M1303.6 187.548C1303.6 186.958 1303.1 186.564 1302.6 186.564C1302 186.564 1301.6 187.056 1301.6 187.548C1301.6 188.138 1302.1 188.532 1302.6 188.532C1303.1 188.532 1303.6 188.04 1303.6 187.548Z" fill="#231F20"/>
<path d="M1361.6 187.553C1361.6 183.518 1358.3 180.271 1354.2 180.271C1350.1 180.271 1346.8 183.518 1346.8 187.553C1346.8 191.587 1350.1 194.834 1354.2 194.834C1358.3 194.834 1361.6 191.587 1361.6 187.553Z" fill="#231F20"/>
<path d="M1411.1 187.55C1411.1 184.697 1408.7 182.335 1405.8 182.335C1402.9 182.335 1400.5 184.697 1400.5 187.55C1400.5 190.404 1402.9 192.765 1405.8 192.765C1408.8 192.765 1411.1 190.404 1411.1 187.55Z" fill="#231F20"/>
<path d="M17.5 125.754C17.5 122.605 14.9 120.046 11.7 120.046C8.49995 120.046 5.90002 122.605 5.90002 125.754C5.90002 128.902 8.49995 131.461 11.7 131.461C14.9 131.461 17.5 128.902 17.5 125.754Z" fill="#231F20"/>
<path d="M66.2 125.755C66.2 124.181 64.9 123 63.4 123C61.9 123 60.6 124.279 60.6 125.755C60.6 127.231 61.9 128.51 63.4 128.51C64.9 128.51 66.2 127.33 66.2 125.755Z" fill="#231F20"/>
<path d="M117.6 125.755C117.6 124.279 116.4 123.196 115 123.196C113.5 123.196 112.4 124.377 112.4 125.755C112.4 127.231 113.6 128.313 115 128.313C116.5 128.411 117.6 127.231 117.6 125.755Z" fill="#231F20"/>
<path d="M173.2 125.758C173.2 122.117 170.2 119.263 166.6 119.263C163 119.263 160 122.215 160 125.758C160 129.3 163 132.252 166.6 132.252C170.3 132.252 173.2 129.398 173.2 125.758Z" fill="#231F20"/>
<path d="M222.8 125.753C222.8 123.293 220.7 121.227 218.2 121.227C215.7 121.227 213.6 123.293 213.6 125.753C213.6 128.213 215.7 130.28 218.2 130.28C220.8 130.28 222.8 128.312 222.8 125.753Z" fill="#231F20"/>
<path d="M279.5 125.756C279.5 120.541 275.2 116.31 269.9 116.31C264.6 116.31 260.3 120.541 260.3 125.756C260.3 130.971 264.6 135.202 269.9 135.202C275.2 135.202 279.5 130.971 279.5 125.756Z" fill="#231F20"/>
<path d="M327.4 125.754C327.4 122.605 324.8 120.046 321.6 120.046C318.4 120.046 315.8 122.605 315.8 125.754C315.8 128.902 318.4 131.461 321.6 131.461C324.8 131.559 327.4 129.001 327.4 125.754Z" fill="#231F20"/>
<path d="M374.4 125.756C374.4 125.067 373.8 124.477 373.1 124.477C372.4 124.477 371.8 125.067 371.8 125.756C371.8 126.445 372.4 127.035 373.1 127.035C373.9 127.035 374.4 126.445 374.4 125.756Z" fill="#231F20"/>
<path d="M434.4 125.756C434.4 120.541 430.1 116.31 424.8 116.31C419.5 116.31 415.2 120.541 415.2 125.756C415.2 130.971 419.5 135.202 424.8 135.202C430.1 135.202 434.4 130.971 434.4 125.756Z" fill="#231F20"/>
<path d="M480.3 125.753C480.3 123.588 478.6 121.916 476.4 121.916C474.2 121.916 472.5 123.588 472.5 125.753C472.5 127.918 474.2 129.591 476.4 129.591C478.6 129.591 480.3 127.918 480.3 125.753Z" fill="#231F20"/>
<path d="M534 125.755C534 122.507 531.3 119.851 528 119.851C524.7 119.851 522 122.507 522 125.755C522 129.002 524.7 131.659 528 131.659C531.4 131.659 534 129.002 534 125.755Z" fill="#231F20"/>
<path d="M581.8 125.755C581.8 124.574 580.8 123.688 579.7 123.688C578.5 123.688 577.6 124.672 577.6 125.755C577.6 126.936 578.6 127.821 579.7 127.821C580.9 127.92 581.8 126.936 581.8 125.755Z" fill="#231F20"/>
<path d="M634.7 125.755C634.7 123.984 633.2 122.508 631.4 122.508C629.6 122.508 628.1 123.984 628.1 125.755C628.1 127.526 629.6 129.002 631.4 129.002C633.2 129.101 634.7 127.625 634.7 125.755Z" fill="#231F20"/>
<path d="M692.4 125.753C692.4 120.636 688.2 116.405 682.9 116.405C677.7 116.405 673.4 120.538 673.4 125.753C673.4 130.87 677.6 135.101 682.9 135.101C688.2 135.101 692.4 130.87 692.4 125.753Z" fill="#231F20"/>
<path d="M737.5 125.754C737.5 124.179 736.2 122.9 734.6 122.9C733 122.9 731.7 124.179 731.7 125.754C731.7 127.328 733 128.607 734.6 128.607C736.2 128.607 737.5 127.328 737.5 125.754Z" fill="#231F20"/>
<path d="M795.6 125.755C795.6 120.639 791.4 116.506 786.2 116.506C781 116.506 776.9 120.639 776.9 125.755C776.9 130.872 781.1 135.005 786.2 135.005C791.4 135.005 795.6 130.872 795.6 125.755Z" fill="#231F20"/>
<path d="M844.1 125.755C844.1 122.41 841.3 119.654 837.9 119.654C834.5 119.654 831.7 122.41 831.7 125.755C831.7 129.101 834.5 131.856 837.9 131.856C841.3 131.954 844.1 129.199 844.1 125.755Z" fill="#231F20"/>
<path d="M893.5 125.755C893.5 123.591 891.7 121.819 889.5 121.819C887.3 121.819 885.5 123.591 885.5 125.755C885.5 127.92 887.3 129.691 889.5 129.691C891.7 129.691 893.5 127.92 893.5 125.755Z" fill="#231F20"/>
<path d="M949.4 125.754C949.4 121.326 945.7 117.686 941.2 117.686C936.7 117.686 933 121.326 933 125.754C933 130.182 936.7 133.823 941.2 133.823C945.7 133.823 949.4 130.281 949.4 125.754Z" fill="#231F20"/>
<path d="M996.7 125.753C996.7 123.687 995 121.916 992.8 121.916C990.7 121.916 988.9 123.588 988.9 125.753C988.9 127.82 990.6 129.591 992.8 129.591C994.9 129.591 996.7 127.918 996.7 125.753Z" fill="#231F20"/>
<path d="M1048.9 125.755C1048.9 123.295 1046.9 121.327 1044.4 121.327C1041.9 121.327 1039.9 123.295 1039.9 125.755C1039.9 128.215 1041.9 130.183 1044.4 130.183C1046.9 130.183 1048.9 128.215 1048.9 125.755Z" fill="#231F20"/>
<path d="M1103.1 125.757C1103.1 121.92 1099.9 118.771 1096 118.771C1092.1 118.771 1088.9 121.92 1088.9 125.757C1088.9 129.595 1092.1 132.744 1096 132.744C1099.9 132.744 1103.1 129.595 1103.1 125.757Z" fill="#231F20"/>
<path d="M1155.3 125.757C1155.3 121.624 1151.9 118.279 1147.7 118.279C1143.5 118.279 1140.1 121.624 1140.1 125.757C1140.1 129.89 1143.5 133.236 1147.7 133.236C1151.9 133.236 1155.3 129.89 1155.3 125.757Z" fill="#231F20"/>
<path d="M1204.1 125.754C1204.1 123.196 1202 121.031 1199.3 121.031C1196.7 121.031 1194.5 123.098 1194.5 125.754C1194.5 128.313 1196.7 130.478 1199.3 130.478C1201.9 130.478 1204.1 128.411 1204.1 125.754Z" fill="#231F20"/>
<path d="M1259.8 125.756C1259.8 120.934 1255.8 116.998 1250.9 116.998C1246 116.998 1242 120.934 1242 125.756C1242 130.577 1246 134.513 1250.9 134.513C1255.8 134.513 1259.8 130.577 1259.8 125.756Z" fill="#231F20"/>
<path d="M1309.4 125.753C1309.4 122.014 1306.3 119.062 1302.6 119.062C1298.8 119.062 1295.8 122.112 1295.8 125.753C1295.8 129.492 1298.9 132.444 1302.6 132.444C1306.4 132.543 1309.4 129.492 1309.4 125.753Z" fill="#231F20"/>
<path d="M1359.9 125.755C1359.9 122.705 1357.4 120.146 1354.2 120.146C1351.1 120.146 1348.5 122.705 1348.5 125.755C1348.5 128.806 1351.1 131.364 1354.2 131.364C1357.4 131.364 1359.9 128.904 1359.9 125.755Z" fill="#231F20"/>
<path d="M1414.2 125.755C1414.2 121.228 1410.5 117.587 1405.9 117.587C1401.3 117.587 1397.6 121.228 1397.6 125.755C1397.6 130.281 1401.3 133.922 1405.9 133.922C1410.4 133.922 1414.2 130.281 1414.2 125.755Z" fill="#231F20"/>
<path d="M16.7 64.0587C16.7 61.3035 14.5 59.1387 11.7 59.1387C8.89995 59.1387 6.69995 61.3035 6.69995 64.0587C6.69995 66.8139 8.89995 68.9787 11.7 68.9787C14.5 68.9787 16.7 66.7155 16.7 64.0587Z" fill="#231F20"/>
<path d="M73.1 64.0616C73.1 58.748 68.7 54.4185 63.3 54.4185C57.9 54.4185 53.5 58.748 53.5 64.0616C53.5 69.3752 57.9 73.7048 63.3 73.7048C68.8 73.7048 73.1 69.3752 73.1 64.0616Z" fill="#231F20"/>
<path d="M116.4 64.0582C116.4 63.271 115.8 62.6807 115 62.6807C114.2 62.6807 113.6 63.271 113.6 64.0582C113.6 64.8454 114.2 65.4359 115 65.4359C115.7 65.3375 116.4 64.747 116.4 64.0582Z" fill="#231F20"/>
<path d="M170 64.057C170 62.1874 168.5 60.7114 166.6 60.7114C164.7 60.7114 163.2 62.1874 163.2 64.057C163.2 65.9266 164.7 67.4026 166.6 67.4026C168.5 67.4026 170 65.8282 170 64.057Z" fill="#231F20"/>
<path d="M226 64.0592C226 59.828 222.5 56.4824 218.3 56.4824C214 56.4824 210.6 59.9264 210.6 64.0592C210.6 68.2904 214.1 71.636 218.3 71.636C222.5 71.636 226 68.192 226 64.0592Z" fill="#231F20"/>
<path d="M278.5 64.0605C278.5 59.3373 274.7 55.5981 269.9 55.5981C265.1 55.5981 261.3 59.4357 261.3 64.0605C261.3 68.7837 265.2 72.523 269.9 72.523C274.7 72.523 278.5 68.6853 278.5 64.0605Z" fill="#231F20"/>
<path d="M327.9 64.0607C327.9 60.6167 325 57.7632 321.5 57.7632C318 57.7632 315.1 60.6167 315.1 64.0607C315.1 67.5047 318 70.3584 321.5 70.3584C325.1 70.3584 327.9 67.5047 327.9 64.0607Z" fill="#231F20"/>
<path d="M378.5 64.0582C378.5 61.1062 376.1 58.7446 373.1 58.7446C370.1 58.7446 367.7 61.1062 367.7 64.0582C367.7 67.0102 370.1 69.3718 373.1 69.3718C376.1 69.2734 378.5 66.9118 378.5 64.0582Z" fill="#231F20"/>
<path d="M429.5 64.0608C429.5 61.5024 427.4 59.436 424.8 59.436C422.2 59.436 420.1 61.5024 420.1 64.0608C420.1 66.6192 422.2 68.6857 424.8 68.6857C427.4 68.6857 429.5 66.6192 429.5 64.0608Z" fill="#231F20"/>
<path d="M481.5 64.0574C481.5 61.3022 479.2 59.0391 476.4 59.0391C473.6 59.0391 471.3 61.3022 471.3 64.0574C471.3 66.8126 473.6 69.0759 476.4 69.0759C479.2 68.9775 481.5 66.8126 481.5 64.0574Z" fill="#231F20"/>
<path d="M529.5 64.0582C529.5 63.271 528.9 62.6807 528.1 62.6807C527.3 62.6807 526.7 63.271 526.7 64.0582C526.7 64.8454 527.3 65.4359 528.1 65.4359C528.8 65.4359 529.5 64.8454 529.5 64.0582Z" fill="#231F20"/>
<path d="M583.6 64.0568C583.6 61.892 581.8 60.2192 579.7 60.2192C577.5 60.2192 575.8 61.9904 575.8 64.0568C575.8 66.2216 577.6 67.8944 579.7 67.8944C581.9 67.8944 583.6 66.1232 583.6 64.0568Z" fill="#231F20"/>
<path d="M640.8 64.057C640.8 58.9402 636.6 54.709 631.3 54.709C626.1 54.709 621.8 58.8418 621.8 64.057C621.8 69.1738 626 73.405 631.3 73.405C636.6 73.3066 640.8 69.1738 640.8 64.057Z" fill="#231F20"/>
<path d="M684 64.0558C684 63.4654 683.5 63.0718 683 63.0718C682.4 63.0718 682 63.5638 682 64.0558C682 64.6462 682.5 65.0398 683 65.0398C683.5 65.0398 684 64.5478 684 64.0558Z" fill="#231F20"/>
<path d="M744.4 64.0616C744.4 58.748 740 54.4185 734.6 54.4185C729.2 54.4185 724.8 58.748 724.8 64.0616C724.8 69.3752 729.2 73.7048 734.6 73.7048C740 73.6064 744.4 69.3752 744.4 64.0616Z" fill="#231F20"/>
<path d="M788 64.0571C788 63.0731 787.2 62.3843 786.3 62.3843C785.3 62.3843 784.6 63.1715 784.6 64.0571C784.6 64.9427 785.4 65.7299 786.3 65.7299C787.2 65.7299 788 64.9427 788 64.0571Z" fill="#231F20"/>
<path d="M841.8 64.0568C841.8 61.892 840 60.2192 837.9 60.2192C835.7 60.2192 834 61.9904 834 64.0568C834 66.2216 835.7 67.8944 837.9 67.8944C840 67.8944 841.8 66.1232 841.8 64.0568Z" fill="#231F20"/>
<path d="M892.4 64.0577C892.4 62.4833 891.1 61.2041 889.5 61.2041C887.9 61.2041 886.6 62.4833 886.6 64.0577C886.6 65.6321 887.9 66.9113 889.5 66.9113C891.1 66.9113 892.4 65.6321 892.4 64.0577Z" fill="#231F20"/>
<path d="M942.3 64.0578C942.3 63.369 941.8 62.877 941.1 62.877C940.4 62.877 939.9 63.369 939.9 64.0578C939.9 64.7466 940.4 65.2386 941.1 65.2386C941.8 65.2386 942.3 64.6482 942.3 64.0578Z" fill="#231F20"/>
<path d="M995.4 64.0584C995.4 62.5824 994.2 61.5 992.8 61.5C991.3 61.5 990.2 62.6808 990.2 64.0584C990.2 65.5344 991.4 66.6168 992.8 66.6168C994.2 66.6168 995.4 65.436 995.4 64.0584Z" fill="#231F20"/>
<path d="M1048.2 64.0585C1048.2 61.9921 1046.5 60.3193 1044.4 60.3193C1042.3 60.3193 1040.6 61.9921 1040.6 64.0585C1040.6 66.1249 1042.3 67.7977 1044.4 67.7977C1046.5 67.6993 1048.2 66.0265 1048.2 64.0585Z" fill="#231F20"/>
<path d="M1104.7 64.0589C1104.7 59.3357 1100.8 55.498 1096 55.498C1091.2 55.498 1087.3 59.3357 1087.3 64.0589C1087.3 68.7821 1091.2 72.6197 1096 72.6197C1100.8 72.5213 1104.7 68.6837 1104.7 64.0589Z" fill="#231F20"/>
<path d="M1154.5 64.0606C1154.5 60.3214 1151.4 57.271 1147.6 57.271C1143.8 57.271 1140.7 60.3214 1140.7 64.0606C1140.7 67.7998 1143.8 70.8502 1147.6 70.8502C1151.5 70.7518 1154.5 67.7998 1154.5 64.0606Z" fill="#231F20"/>
<path d="M1205.4 64.0566C1205.4 60.8094 1202.7 58.0542 1199.4 58.0542C1196 58.0542 1193.3 60.711 1193.3 64.0566C1193.3 67.3038 1196 69.9606 1199.4 69.9606C1202.7 69.9606 1205.4 67.3038 1205.4 64.0566Z" fill="#231F20"/>
<path d="M1258.8 64.0565C1258.8 59.8253 1255.3 56.3813 1251 56.3813C1246.7 56.3813 1243.2 59.8253 1243.2 64.0565C1243.2 68.2877 1246.7 71.7317 1251 71.7317C1255.3 71.7317 1258.8 68.2877 1258.8 64.0565Z" fill="#231F20"/>
<path d="M1305.4 64.0589C1305.4 62.5829 1304.1 61.3037 1302.6 61.3037C1301.1 61.3037 1299.8 62.4845 1299.8 64.0589C1299.8 65.5349 1301.1 66.8141 1302.6 66.8141C1304.1 66.8141 1305.4 65.5349 1305.4 64.0589Z" fill="#231F20"/>
<path d="M1363.8 64.0601C1363.8 58.8449 1359.5 54.6138 1354.2 54.6138C1348.9 54.6138 1344.6 58.8449 1344.6 64.0601C1344.6 69.2753 1348.9 73.5066 1354.2 73.5066C1359.5 73.5066 1363.8 69.2753 1363.8 64.0601Z" fill="#231F20"/>
<path d="M1414.5 64.0589C1414.5 59.3357 1410.6 55.498 1405.8 55.498C1401 55.498 1397.1 59.3357 1397.1 64.0589C1397.1 68.7821 1401 72.6197 1405.8 72.6197C1410.6 72.5213 1414.5 68.7821 1414.5 64.0589Z" fill="#231F20"/>
<path d="M18.4 2.26273C18.4 -1.37807 15.4 -4.33008 11.7 -4.33008C7.99995 -4.33008 5 -1.37807 5 2.26273C5 5.90353 7.99995 8.85555 11.7 8.85555C15.4 8.85555 18.4 5.90353 18.4 2.26273Z" fill="#231F20"/>
<path d="M66.8 2.26334C66.8 0.393736 65.2 -1.18066 63.3 -1.18066C61.4 -1.18066 59.8 0.393736 59.8 2.26334C59.8 4.13294 61.4 5.70734 63.3 5.70734C65.3 5.70734 66.8 4.13294 66.8 2.26334Z" fill="#231F20"/>
<path d="M121.2 2.26292C121.2 -1.08268 118.4 -3.83789 115 -3.83789C111.6 -3.83789 108.8 -1.08268 108.8 2.26292C108.8 5.60852 111.6 8.36374 115 8.36374C118.4 8.36374 121.2 5.60852 121.2 2.26292Z" fill="#231F20"/>
<path d="M173.4 2.26101C173.4 -1.47819 170.3 -4.43018 166.6 -4.43018C162.8 -4.43018 159.8 -1.47819 159.8 2.26101C159.8 6.00021 162.9 8.9522 166.6 8.9522C170.4 8.9522 173.4 6.00021 173.4 2.26101Z" fill="#231F20"/>
<path d="M227.2 2.26078C227.2 -2.56082 223.2 -6.59521 218.2 -6.59521C213.3 -6.59521 209.2 -2.65922 209.2 2.26078C209.2 7.08238 213.2 11.1168 218.2 11.1168C223.2 11.1168 227.2 7.08238 227.2 2.26078Z" fill="#231F20"/>
<path d="M273.1 2.26453C273.1 0.493335 271.7 -0.884277 269.9 -0.884277C268.1 -0.884277 266.7 0.493335 266.7 2.26453C266.7 4.03574 268.1 5.41335 269.9 5.41335C271.7 5.41335 273.1 4.03574 273.1 2.26453Z" fill="#231F20"/>
<path d="M323.7 2.26491C323.7 1.08411 322.7 0.100098 321.5 0.100098C320.3 0.100098 319.3 1.08411 319.3 2.26491C319.3 3.44571 320.3 4.42972 321.5 4.42972C322.7 4.42972 323.7 3.44571 323.7 2.26491Z" fill="#231F20"/>
<path d="M376.2 2.26352C376.2 0.590723 374.9 -0.688477 373.2 -0.688477C371.5 -0.688477 370.2 0.590723 370.2 2.26352C370.2 3.83792 371.5 5.21552 373.2 5.21552C374.8 5.21552 376.2 3.83792 376.2 2.26352Z" fill="#231F20"/>
<path d="M429.2 2.26566C429.2 -0.0959408 427.2 -2.06396 424.8 -2.06396C422.4 -2.06396 420.4 -0.0959408 420.4 2.26566C420.4 4.62726 422.4 6.59528 424.8 6.59528C427.2 6.59528 429.2 4.62726 429.2 2.26566Z" fill="#231F20"/>
<path d="M480.8 2.26566C480.8 -0.0959408 478.8 -2.06396 476.4 -2.06396C474 -2.06396 472 -0.0959408 472 2.26566C472 4.62726 474 6.59528 476.4 6.59528C478.8 6.59528 480.8 4.62726 480.8 2.26566Z" fill="#231F20"/>
<path d="M533.8 2.26139C533.8 -0.887413 531.2 -3.4458 528 -3.4458C524.8 -3.4458 522.2 -0.887413 522.2 2.26139C522.2 5.41019 524.8 7.96857 528 7.96857C531.2 7.96857 533.8 5.41019 533.8 2.26139Z" fill="#231F20"/>
<path d="M586.4 2.26273C586.4 -1.37807 583.4 -4.33008 579.7 -4.33008C576 -4.33008 573 -1.37807 573 2.26273C573 5.90353 576 8.85555 579.7 8.85555C583.4 8.85555 586.4 5.90353 586.4 2.26273Z" fill="#231F20"/>
<path d="M635.6 2.26244C635.6 -0.0991622 633.7 -1.96875 631.3 -1.96875C628.9 -1.96875 627 -0.0991622 627 2.26244C627 4.62404 628.9 6.49363 631.3 6.49363C633.7 6.49363 635.6 4.62404 635.6 2.26244Z" fill="#231F20"/>
<path d="M684.4 2.26457C684.4 1.47737 683.7 0.788574 682.9 0.788574C682.1 0.788574 681.4 1.47737 681.4 2.26457C681.4 3.05177 682.1 3.74057 682.9 3.74057C683.8 3.74057 684.4 3.05177 684.4 2.26457Z" fill="#231F20"/>
<path d="M740.6 2.2624C740.6 -0.984802 737.9 -3.6416 734.6 -3.6416C731.3 -3.6416 728.6 -0.984802 728.6 2.2624C728.6 5.5096 731.3 8.1664 734.6 8.1664C737.9 8.1664 740.6 5.5096 740.6 2.2624Z" fill="#231F20"/>
<path d="M790.2 2.26585C790.2 0.101046 788.4 -1.57178 786.3 -1.57178C784.1 -1.57178 782.4 0.199447 782.4 2.26585C782.4 4.43065 784.1 6.10347 786.3 6.10347C788.4 6.10347 790.2 4.43065 790.2 2.26585Z" fill="#231F20"/>
<path d="M838.9 2.26304C838.9 1.67264 838.4 1.18066 837.8 1.18066C837.2 1.18066 836.7 1.67264 836.7 2.26304C836.7 2.85344 837.2 3.34542 837.8 3.34542C838.5 3.34542 838.9 2.85344 838.9 2.26304Z" fill="#231F20"/>
<path d="M895.1 2.26672C895.1 -0.783676 892.6 -3.24365 889.5 -3.24365C886.4 -3.24365 883.9 -0.783676 883.9 2.26672C883.9 5.31712 886.4 7.7771 889.5 7.7771C892.6 7.7771 895.1 5.31712 895.1 2.26672Z" fill="#231F20"/>
<path d="M947.9 2.26101C947.9 -1.37979 944.9 -4.43018 941.1 -4.43018C937.4 -4.43018 934.3 -1.47819 934.3 2.26101C934.3 5.90181 937.3 8.9522 941.1 8.9522C944.9 8.9522 947.9 5.90181 947.9 2.26101Z" fill="#231F20"/>
<path d="M1001.7 2.26348C1001.7 -2.55812 997.7 -6.49414 992.8 -6.49414C987.9 -6.49414 983.9 -2.55812 983.9 2.26348C983.9 7.08509 987.9 11.0211 992.8 11.0211C997.7 11.0211 1001.7 7.08509 1001.7 2.26348Z" fill="#231F20"/>
<path d="M1053 2.26413C1053 -2.36067 1049.2 -6.19824 1044.4 -6.19824C1039.7 -6.19824 1035.8 -2.45907 1035.8 2.26413C1035.8 6.88893 1039.6 10.7265 1044.4 10.7265C1049.1 10.7265 1053 6.88893 1053 2.26413Z" fill="#231F20"/>
<path d="M1105.7 2.26376C1105.7 -2.95144 1101.4 -7.18262 1096.1 -7.18262C1090.8 -7.18262 1086.5 -2.95144 1086.5 2.26376C1086.5 7.47896 1090.8 11.7101 1096.1 11.7101C1101.4 11.7101 1105.7 7.47896 1105.7 2.26376Z" fill="#231F20"/>
<path d="M1155 2.26082C1155 -1.67518 1151.7 -4.92236 1147.7 -4.92236C1143.7 -4.92236 1140.4 -1.67518 1140.4 2.26082C1140.4 6.19682 1143.7 9.44401 1147.7 9.44401C1151.7 9.44401 1155 6.19682 1155 2.26082Z" fill="#231F20"/>
<path d="M1202.9 2.26161C1202.9 0.293614 1201.3 -1.28076 1199.3 -1.28076C1197.3 -1.28076 1195.7 0.293614 1195.7 2.26161C1195.7 4.22961 1197.3 5.80399 1199.3 5.80399C1201.3 5.80399 1202.9 4.22961 1202.9 2.26161Z" fill="#231F20"/>
<path d="M1254.3 2.26115C1254.3 0.391551 1252.8 -1.08447 1250.9 -1.08447C1249 -1.08447 1247.5 0.391551 1247.5 2.26115C1247.5 4.13075 1249 5.60678 1250.9 5.60678C1252.8 5.60678 1254.3 4.13075 1254.3 2.26115Z" fill="#231F20"/>
<path d="M1304.2 2.26285C1304.2 1.37725 1303.5 0.688477 1302.6 0.688477C1301.7 0.688477 1301 1.37725 1301 2.26285C1301 3.14845 1301.7 3.83723 1302.6 3.83723C1303.5 3.83723 1304.2 3.14845 1304.2 2.26285Z" fill="#231F20"/>
<path d="M1364 2.26477C1364 -3.04883 1359.6 -7.37842 1354.2 -7.37842C1348.8 -7.37842 1344.4 -3.04883 1344.4 2.26477C1344.4 7.57837 1348.8 11.908 1354.2 11.908C1359.6 11.908 1364 7.57837 1364 2.26477Z" fill="#231F20"/>
<path d="M1415 2.2618C1415 -2.7566 1410.9 -6.79102 1405.8 -6.79102C1400.7 -6.79102 1396.6 -2.7566 1396.6 2.2618C1396.6 7.28019 1400.7 11.3146 1405.8 11.3146C1410.9 11.3146 1415 7.28019 1415 2.2618Z" fill="#231F20"/>
</svg>
